<svg width="24" height="24" viewBox="0 0 24 24" fill="none" xmlns="http://www.w3.org/2000/svg">
<mask id="mask0_56_2460" style="mask-type:alpha" maskUnits="userSpaceOnUse" x="0" y="0" width="24" height="24">
<rect width="24" height="24" fill="#D9D9D9"/>
</mask>
<g mask="url(#mask0_56_2460)">
<path d="M9.55001 12L15.9 18.35C16.15 18.6 16.2708 18.8917 16.2625 19.225C16.2542 19.5583 16.125 19.85 15.875 20.1C15.625 20.35 15.3333 20.475 15 20.475C14.6667 20.475 14.375 20.35 14.125 20.1L7.42501 13.425C7.22501 13.225 7.07501 13 6.97501 12.75C6.87501 12.5 6.82501 12.25 6.82501 12C6.82501 11.75 6.87501 11.5 6.97501 11.25C7.07501 11 7.22501 10.775 7.42501 10.575L14.125 3.87499C14.375 3.62499 14.6708 3.50415 15.0125 3.51249C15.3542 3.52082 15.65 3.64999 15.9 3.89999C16.15 4.14999 16.275 4.44165 16.275 4.77499C16.275 5.10832 16.15 5.39999 15.9 5.64999L9.55001 12Z" fill="#1C1B1F"/>
</g>
</svg>
