<svg width="32" height="31" viewBox="0 0 32 31" fill="none" xmlns="http://www.w3.org/2000/svg">
<path fill-rule="evenodd" clip-rule="evenodd" d="M6.49716 2.90625L6.5 2.90625L25.5028 2.90625C26.6945 2.90954 27.8364 3.36959 28.6791 4.1859C29.5217 5.00222 29.9966 6.10843 30 7.26287L30 7.26563L30 18.8906L30 18.8934C29.9966 20.0478 29.5217 21.154 28.6791 21.9703C27.8364 22.7867 26.6945 23.2467 25.5028 23.25L25.5 23.25H15.3591L9.64038 27.8691C9.34232 28.1098 8.92741 28.1618 8.57596 28.0023C8.22451 27.8429 8 27.5009 8 27.125V23.25H6.5L6.49716 23.25C5.30548 23.2467 4.16358 22.7867 3.32093 21.9703C2.47829 21.154 2.00339 20.0478 2 18.8934L2 18.8906V7.26287C2.00339 6.10843 2.47829 5.00222 3.32093 4.1859C4.16358 3.36959 5.30548 2.90954 6.49716 2.90625ZM15.4979 23.1379C15.4978 23.138 15.4979 23.1379 15.4979 23.1379V23.1379ZM6.50154 4.84375H25.4985C26.1612 4.84591 26.7962 5.10191 27.2649 5.55592C27.7334 6.00987 27.9977 6.6249 28 7.26682V18.8894C27.9977 19.5314 27.7334 20.1464 27.2649 20.6003C26.7962 21.0544 26.1612 21.3104 25.4984 21.3125H15.1783C15.1783 21.3125 15.1784 21.3125 15.1783 21.3125C14.8268 21.3125 14.4862 21.432 14.2165 21.6504L10 25.056V22.2813C10 21.7462 9.55229 21.3125 9 21.3125H6.50161C5.83884 21.3104 5.20382 21.0544 4.73515 20.6003C4.26649 20.1463 4.00223 19.5312 4 18.8891V7.26712C4.00223 6.62508 4.26649 6.00994 4.73515 5.55592C5.20381 5.10191 5.83879 4.84591 6.50154 4.84375Z" fill="#7A7A7A"/>
<path d="M10 15.0156C11.1046 15.0156 12 14.1482 12 13.0781C12 12.0081 11.1046 11.1406 10 11.1406C8.89543 11.1406 8 12.0081 8 13.0781C8 14.1482 8.89543 15.0156 10 15.0156Z" fill="#7A7A7A"/>
<path d="M16 15.0156C17.1046 15.0156 18 14.1482 18 13.0781C18 12.0081 17.1046 11.1406 16 11.1406C14.8954 11.1406 14 12.0081 14 13.0781C14 14.1482 14.8954 15.0156 16 15.0156Z" fill="#7A7A7A"/>
<path d="M22 15.0156C23.1046 15.0156 24 14.1482 24 13.0781C24 12.0081 23.1046 11.1406 22 11.1406C20.8954 11.1406 20 12.0081 20 13.0781C20 14.1482 20.8954 15.0156 22 15.0156Z" fill="#7A7A7A"/>
</svg>
