<svg width="32" height="32" viewBox="0 0 32 32" fill="none" xmlns="http://www.w3.org/2000/svg">
<path fill-rule="evenodd" clip-rule="evenodd" d="M5 12.25C5.55228 12.25 6 12.6977 6 13.25V28H11V20.5C11 19.837 11.2634 19.2011 11.7322 18.7322C12.2011 18.2634 12.837 18 13.5 18H18.5C19.163 18 19.7989 18.2634 20.2678 18.7322C20.7366 19.2011 21 19.837 21 20.5V28H26V13.25C26 12.6977 26.4477 12.25 27 12.25C27.5523 12.25 28 12.6977 28 13.25V28C28 28.5304 27.7893 29.0391 27.4142 29.4142C27.0391 29.7893 26.5304 30 26 30H20C19.4477 30 19 29.5523 19 29V20.5C19 20.3674 18.9473 20.2402 18.8536 20.1464C18.7598 20.0527 18.6326 20 18.5 20H13.5C13.3674 20 13.2402 20.0527 13.1464 20.1464C13.0527 20.2402 13 20.3674 13 20.5V29C13 29.5523 12.5523 30 12 30H6C5.46957 30 4.96086 29.7893 4.58579 29.4142C4.21071 29.0391 4 28.5304 4 28V13.25C4 12.6977 4.44772 12.25 5 12.25Z" fill="#7A7A7A"/>
<path fill-rule="evenodd" clip-rule="evenodd" d="M17.3857 2.54065L21 6.00041V4C21 3.44771 21.4477 3 22 3H25C25.5523 3 26 3.44771 26 4V10.7867L30.6915 15.2776C31.0905 15.6595 31.1043 16.2925 30.7224 16.6915C30.3405 17.0905 29.7075 17.1043 29.3085 16.7224L16.02 4.00196C16.0139 4.00143 16.0073 4.0011 16.0003 4.00109C15.9931 4.00108 15.9862 4.0014 15.98 4.00195L2.6915 16.7224C2.29254 17.1043 1.65953 17.0905 1.27762 16.6915C0.895719 16.2925 0.909545 15.6595 1.3085 15.2776L14.6151 2.53983C15.023 2.12627 15.5789 2.00033 16.0039 2.0011C16.4271 2.00185 16.981 2.12882 17.3857 2.54065ZM24 8.87217V5H23V7.91492L24 8.87217Z" fill="#7A7A7A"/>
</svg>
