<svg width="24" height="24" viewBox="0 0 24 24" fill="none" xmlns="http://www.w3.org/2000/svg">
<path d="M3.6014 22.5C3.28259 22.4985 2.97738 22.3707 2.75269 22.1445C2.528 21.9183 2.40218 21.6123 2.4028 21.2934C2.40559 21.1723 2.42451 21.052 2.45905 20.9358L3.32249 17.8125C3.35858 17.6972 3.3178 17.5809 3.26483 17.4891L3.25452 17.4703C3.25077 17.4642 3.23296 17.4394 3.2203 17.4211C3.20765 17.4028 3.19311 17.3831 3.17999 17.3639L3.17108 17.3513C2.08084 15.6988 1.49978 13.7627 1.49999 11.783C1.49155 9.08344 2.54765 6.53297 4.47468 4.59797C6.46874 2.60016 9.13593 1.5 11.9916 1.5C14.414 1.4988 16.7647 2.3228 18.6562 3.83625C20.5055 5.32453 21.7908 7.39875 22.2755 9.68063C22.4247 10.3738 22.4998 11.0809 22.4995 11.79C22.4995 14.5523 21.4383 17.1469 19.5108 19.0964C17.5664 21.0652 14.9555 22.1461 12.1594 22.1461C11.175 22.1461 9.91546 21.8948 9.31077 21.7242C8.58327 21.5208 7.89374 21.2555 7.8178 21.2273C7.73744 21.1966 7.65214 21.1807 7.56608 21.1805C7.47275 21.1799 7.38027 21.1982 7.29421 21.2344L7.25436 21.2498L4.09124 22.3927C3.93588 22.4581 3.76986 22.4944 3.6014 22.5Z" fill="black" fill-opacity="0.9"/>
</svg>
