<svg width="33" height="33" viewBox="0 0 33 33" fill="none" xmlns="http://www.w3.org/2000/svg">
<path fill-rule="evenodd" clip-rule="evenodd" d="M11.8501 2.06189C12.3425 2.05601 12.8291 2.16772 13.2696 2.38776C13.3022 2.40403 13.3339 2.42201 13.3645 2.44163L20.6927 7.13C20.8282 7.19024 20.9753 7.22062 21.1239 7.21884C21.2748 7.21704 21.4233 7.18215 21.559 7.11682L27.8292 3.0309C27.8553 3.01394 27.882 2.99817 27.9095 2.98363C28.2238 2.81712 28.5758 2.73473 28.9314 2.74445C29.287 2.75418 29.634 2.85569 29.9387 3.03913C30.2434 3.22257 30.4955 3.4817 30.6706 3.79136C30.8456 4.10099 30.9375 4.45061 30.9375 4.80627C30.9375 4.8063 30.9375 4.80624 30.9375 4.80627V23.8664C30.9375 24.2441 30.8337 24.6146 30.6375 24.9374C30.4522 25.2424 30.191 25.4938 29.88 25.6674L22.477 30.5377C22.4474 30.5572 22.4168 30.5751 22.3853 30.5915C22.0666 30.7568 21.7226 30.865 21.3687 30.9122C21.2953 30.9288 21.219 30.9375 21.1406 30.9375C21.1248 30.9375 21.109 30.9371 21.0933 30.9364C21.0528 30.9382 21.0123 30.9391 20.9717 30.9393C20.4795 30.9411 19.994 30.8255 19.5555 30.6021C19.5227 30.5854 19.4909 30.567 19.4601 30.5469L12.3047 25.8773C12.1683 25.8153 12.0199 25.7837 11.8697 25.7849C11.7172 25.7862 11.567 25.8212 11.4299 25.8874L5.17106 29.9689C5.14494 29.9859 5.11806 30.0018 5.09051 30.0164C4.77619 30.1829 4.42416 30.2653 4.06861 30.2556C3.71305 30.2458 3.36605 30.1443 3.06131 29.9609C2.75657 29.7774 2.50445 29.5183 2.32944 29.2086C2.15444 28.899 2.06248 28.5494 2.0625 28.1937M12.8906 23.8928C13.0243 23.9391 13.155 23.9946 13.2818 24.0592C13.3147 24.0759 13.3466 24.0944 13.3775 24.1146L20.1094 28.5078V9.11459C19.9803 9.07039 19.8539 9.01756 19.7311 8.95632C19.6983 8.93997 19.6663 8.92187 19.6355 8.90212L12.8906 4.58693V23.8928ZM10.8281 4.63746L4.21683 9.07347C4.18719 9.09336 4.15654 9.1117 4.125 9.12841L4.125 28.1888L10.3493 24.1298C10.3754 24.1128 10.4022 24.097 10.4298 24.0824C10.5586 24.0141 10.6918 23.9552 10.8281 23.906V4.63746ZM22.1719 9.09405V28.2696L28.7832 23.9201C28.8129 23.9006 28.8435 23.8826 28.875 23.8663V4.8112L22.6389 8.87488C22.6126 8.89197 22.5856 8.90785 22.558 8.92249C22.433 8.9886 22.304 9.04587 22.1719 9.09405ZM11.8501 2.06189C11.3578 2.06778 10.8739 2.1911 10.4388 2.4216ZM10.4388 2.4216C10.4073 2.4383 10.3766 2.45664 10.347 2.47653ZM10.347 2.47653L3.1045 7.33606ZM3.1045 7.33606C2.79758 7.51081 2.54034 7.76166 2.35786 8.06487C2.16459 8.38599 2.06248 8.75371 2.0625 9.1285C2.0625 9.12847 2.0625 9.12853 2.0625 9.1285V28.1937" fill="#147D70"/>
</svg>
