<svg width="33" height="33" viewBox="0 0 33 33" fill="none" xmlns="http://www.w3.org/2000/svg">
<path d="M16.6869 3.09375C9.14721 2.99191 2.99194 9.14719 3.09377 16.6869C3.19432 23.9179 9.08212 29.8057 16.3131 29.9062C23.8541 30.0094 30.0081 23.8541 29.905 16.3144C29.8057 9.08209 23.9179 3.1943 16.6869 3.09375ZM24.8351 24.186C24.8094 24.2138 24.778 24.2356 24.7429 24.2498C24.7079 24.2641 24.6702 24.2704 24.6324 24.2685C24.5946 24.2665 24.5578 24.2562 24.5244 24.2384C24.491 24.2206 24.462 24.1957 24.4394 24.1654C23.8629 23.4111 23.1569 22.7654 22.3543 22.2582C20.7133 21.2051 18.6341 20.625 16.5 20.625C14.366 20.625 12.2867 21.2051 10.6457 22.2582C9.84322 22.7651 9.13722 23.4107 8.56069 24.1648C8.53804 24.195 8.50901 24.22 8.47565 24.2378C8.44229 24.2556 8.40542 24.2658 8.36765 24.2678C8.32989 24.2698 8.29215 24.2634 8.25712 24.2492C8.22209 24.2349 8.19062 24.2132 8.16495 24.1854C6.27368 22.1438 5.20236 19.476 5.15627 16.6934C5.05122 10.4214 10.1978 5.17172 16.4723 5.15625C22.7468 5.14078 27.8438 10.2358 27.8438 16.5C27.8459 19.3497 26.7713 22.0951 24.8351 24.186Z" fill="#7A7A7A"/>
<path d="M16.5 9.28125C15.229 9.28125 14.0798 9.75756 13.2632 10.6232C12.4466 11.4888 12.0386 12.6857 12.1307 13.9702C12.3176 16.5 14.2777 18.5625 16.5 18.5625C18.7224 18.5625 20.6785 16.5 20.8693 13.9709C20.9647 12.6986 20.5599 11.5126 19.7298 10.6309C18.9099 9.76078 17.7626 9.28125 16.5 9.28125Z" fill="#7A7A7A"/>
</svg>
