<svg width="25" height="25" viewBox="0 0 25 25" fill="none" xmlns="http://www.w3.org/2000/svg">
<path d="M12.5 3.12502C10.0136 3.12502 7.62899 4.11274 5.87084 5.87089C4.11268 7.62905 3.12496 10.0136 3.12496 12.5C3.12173 14.5133 3.76958 16.4737 4.97184 18.0886C5.3261 17.0648 5.99079 16.1769 6.87336 15.5486C7.75592 14.9204 8.81244 14.5829 9.8958 14.5834H15.1041C16.1875 14.5829 17.244 14.9204 18.1266 15.5486C19.0091 16.1769 19.6738 17.0648 20.0281 18.0886C21.2304 16.4737 21.8782 14.5133 21.875 12.5C21.875 10.0136 20.8872 7.62905 19.1291 5.87089C17.3709 4.11274 14.9864 3.12502 12.5 3.12502ZM18.2291 19.9219V19.7917C18.2291 18.9629 17.8999 18.168 17.3138 17.582C16.7278 16.9959 15.9329 16.6667 15.1041 16.6667H9.8958C9.067 16.6667 8.27214 16.9959 7.68609 17.582C7.10004 18.168 6.7708 18.9629 6.7708 19.7917V19.9219C8.41052 21.1913 10.4263 21.8785 12.5 21.875C14.6583 21.875 16.6448 21.1459 18.2291 19.9219ZM1.04163 12.5C1.04163 6.1719 6.17184 1.04169 12.5 1.04169C18.8281 1.04169 23.9583 6.1719 23.9583 12.5C23.9598 14.1553 23.602 15.7912 22.9096 17.2947C22.2172 18.7982 21.2067 20.1335 19.9479 21.2084C17.8742 22.9865 15.2317 23.9622 12.5 23.9584C9.76828 23.9622 7.12574 22.9865 5.05205 21.2084C3.79324 20.1335 2.78275 18.7982 2.09034 17.2947C1.39794 15.7912 1.04013 14.1553 1.04163 12.5ZM12.5 6.25002C11.8093 6.25002 11.1469 6.52439 10.6585 7.01276C10.1702 7.50114 9.8958 8.16352 9.8958 8.85419C9.8958 9.54485 10.1702 10.2072 10.6585 10.6956C11.1469 11.184 11.8093 11.4584 12.5 11.4584C13.1906 11.4584 13.853 11.184 14.3414 10.6956C14.8298 10.2072 15.1041 9.54485 15.1041 8.85419C15.1041 8.16352 14.8298 7.50114 14.3414 7.01276C13.853 6.52439 13.1906 6.25002 12.5 6.25002ZM7.81246 8.85419C7.81246 7.61098 8.30632 6.4187 9.1854 5.53962C10.0645 4.66055 11.2568 4.16669 12.5 4.16669C13.7432 4.16669 14.9355 4.66055 15.8145 5.53962C16.6936 6.4187 17.1875 7.61098 17.1875 8.85419C17.1875 10.0974 16.6936 11.2897 15.8145 12.1687C14.9355 13.0478 13.7432 13.5417 12.5 13.5417C11.2568 13.5417 10.0645 13.0478 9.1854 12.1687C8.30632 11.2897 7.81246 10.0974 7.81246 8.85419Z" fill="#D9D9D9"/>
</svg>
